<?xml version="1.0" encoding="utf-8"?>
<!-- Generator: Adobe Illustrator 19.1.0, SVG Export Plug-In . SVG Version: 6.00 Build 0)  -->
<svg version="1.1" id="Layer_1" xmlns="http://www.w3.org/2000/svg" xmlns:xlink="http://www.w3.org/1999/xlink" x="0px" y="0px"
	 viewBox="333 -8.6 766 116.6" style="enable-background:new 333 -8.6 766 116.6;" xml:space="preserve">
<title>GarberCo</title>
<g>
	<path d="M386.3,42.2l-1.3,1.3v7l1.2,1.3h23.5c3.5,0,6.4,2.8,6.4,6.4v22.7c0,11.8-11.3,17.6-22.9,17.6c-24.5,0-36.7-25.9-36.7-48.3
		c0-23.7,13.5-48.3,38.3-48.3c14.2,0,26.4,7.5,26.4,19.4v2.9l1.3,1.3h8.4l1.3-1.2l0.1-20l-1.1-1.6c-11-6.7-23.6-10.2-36.5-10.2
		c-34.5,0-61.7,24.1-61.7,57.8s25.6,57.8,59.2,57.8c17.3,0,30.5-6,45.1-17l1.3-2.1V58.1c0-3.2,3.4-6.4,6.4-6.4h5.1l1.3-1.3v-7
		l-1.2-1.3H386.3z"/>
	<path d="M545.3,91.2c-3.7,0-6.4-1.9-6.4-6.2l0-56.1l-1.6-1.6h-3.8l-9.2,10.2h-0.8C519.1,32,510.2,25,496.1,25
		c-23.5,0-41,18.6-41,41.5c0,25.9,19.5,41.5,38.1,41.5c12.5,0,18.9-3.8,24.8-9.4v7.1l1.6,1.6h4.8l24.2-9.8v-4.8l-1.6-1.6H545.3z
		 M518.9,66.5c0,14.5-5.1,31.9-21.3,31.9c-16,0-21.6-17.5-21.6-31.9c0-14.5,5.6-31.9,21.7-31.9C514.2,34.6,519,52.1,518.9,66.5
		L518.9,66.5z"/>
	<path d="M605.4,25c-10.6,0-17.9,6.7-22.2,15.5V28.9l-1.4-1.6h-3.4l-22.9,9.4l-1.3,1.6v3.7l1.6,1.6h1.6c3.2,0,6.4,3.4,6.4,6.4v40
		c-0.2,3.4-2.9,6.1-6.4,6.4h-1.9l-1.3,1.3v7l1.3,1.3H593l1.3-1.3v-7l-1.3-1.3h-1.9c-3.4-0.2-6.1-2.9-6.4-6.4V60.5
		c0-11.3,4.8-20,9.8-23.2c0,0.2,0,0.3,0,0.5c0.1,6.6,5.6,11.9,12.2,11.8c7.2,0,12.2-5.1,12.2-12.1S613.5,25,605.4,25z"/>
	<path d="M674.1,25c-10.3,0-18.8,3.3-25,9.7V-7l-1.6-1.6h-3.2l-25.7,9.9V6l1.6,1.6h1.6c3.4,0.2,6.1,2.9,6.4,6.4l0,0v76
		c-0.2,3.4-2.9,6.1-6.4,6.4h-1.9l-1.3,1.3v7l1.3,1.3h28l1.3-1.3v-7c5.6,6.2,13.7,10.5,25.3,10.5c22.2,0,38.6-17.3,38.6-41.5
		C713,40.3,695.6,25,674.1,25z M670.1,98.5c-15.9,0-21.9-15.8-21.9-31.9c0-16.2,6-31.9,21.9-31.9S692,50.3,692,66.5
		C692,82.7,686,98.5,670.1,98.5z"/>
	<path d="M798.1,76.6l-1.6,0.6c-6.8,10.3-16.5,15.9-30,15.9c-14.6,0-24.6-8.3-26.4-21l58.8-4.9l1.2-1.2c0-21.1-12.2-40.8-38.9-40.8
		c-22.7,0-41.3,18-41.3,40.8c0,23.7,17.2,42.1,42,42.1c19.1,0,33.5-10.6,38.8-29.2l-0.8-1.6L798.1,76.6z M761.9,34.6
		c10.3,0,17.5,7.3,17.5,18.9c0,3.2-1.3,6.5-6.4,6.8l-32.1,2.5l-1.1-1.1C740.6,45.7,748.5,34.6,761.9,34.6z"/>
	<path d="M938.8-7.6c-35,0-60.4,22.5-60.4,57.8c0,35.3,25.4,57.8,60.4,57.8c12.4-0.2,24.7-3,35.9-8.2l1.4-1.8V74.6l-1.3-1.3h-8.6
		l-1.3,1.3v2.8c0,13.5-11.9,21-24.8,21c-22.9,0-38.3-22.4-38.3-48.3c0-25.9,15.4-48.3,38.3-48.3c12.9,0,24.8,7.3,24.8,21v2.9
		l1.3,1.2h8.6l1.3-1.3V2.4l-1.4-1.7C963.5-4.7,951.2-7.5,938.8-7.6z"/>
	<path d="M1027.9,25c-23.5,0-43.1,18-43.1,41.5c0,23.5,19.6,41.5,43.1,41.5s43-18,43-41.5S1051.5,25,1027.9,25z M1050,66.5
		c0,19.1-7.3,32.7-22,32.7c-14.7,0-22.1-13.7-22.1-32.7s7.5-32.7,22.1-32.7C1042.6,33.8,1050,47.5,1050,66.5L1050,66.5z"/>
	<path d="M1086.6,83.5c-0.1,0-0.1,0-0.2,0c-6.7,0.1-12,5.7-11.9,12.4c0,0.2,0,0.4,0,0.6c0.2,6.5,5.6,11.6,12.1,11.5
		c0.2,0,0.3,0,0.5,0c6.6,0,12-5.5,11.9-12.1C1099,89.1,1093.4,83.5,1086.6,83.5z"/>
	<path d="M856.2,25c-10.7,0-18,6.7-22.2,15.6h0V28.9l-1.4-1.6h-3.4l-22.9,9.4l-1.3,1.6v3.7l1.6,1.6h1.6c3.2,0,6.4,3.4,6.4,6.4v40
		c-0.2,3.4-2.9,6.1-6.4,6.4h-1.9l-1.3,1.3v7l1.3,1.3h37.5l1.3-1.3v-7l-1.3-1.3h-1.9c-3.4-0.2-6.1-2.9-6.4-6.4V60.5
		c0-11.3,4.8-20,9.8-23.2c0,0.2,0,0.3,0,0.5c0.1,6.6,5.6,11.9,12.2,11.8c7.1,0,12.2-5.1,12.2-12.1S864.3,25,856.2,25z"/>
</g>
</svg>
